<svg width="98" height="100" viewBox="0 0 98 100" fill="none" xmlns="http://www.w3.org/2000/svg">
<path d="M14.3568 90.8872L14.782 86.1241H12.8646L12.4221 90.8872C12.3411 91.7317 12.1676 92.4518 11.9015 93.0475C11.6355 93.6433 11.3029 94.1407 10.9038 94.5398C10.4237 95.0199 9.88292 95.364 9.28139 95.5722C8.68564 95.7805 8.06386 95.8846 7.41606 95.8846H7.17313C6.61208 95.8614 6.10309 95.7631 5.64616 95.5896C5.18922 95.4161 4.79013 95.1731 4.44887 94.8608C4.10183 94.5427 3.83288 94.1638 3.64201 93.7243C3.45692 93.2847 3.36438 92.7901 3.36438 92.2407V92.0585C3.3933 91.428 3.53211 90.8554 3.78082 90.3406C4.03532 89.8258 4.37657 89.3834 4.80459 89.0132C5.23839 88.6315 5.7387 88.3394 6.30553 88.1369C6.87236 87.9287 7.47968 87.8246 8.12748 87.8246H11.2855L11.4417 86.1241H8.64804C7.61849 86.1241 6.65835 86.26 5.76762 86.5319C4.87689 86.8037 4.10183 87.2173 3.44246 87.7725C2.85828 88.2642 2.38977 88.8715 2.03695 89.5945C1.68991 90.3117 1.49326 91.1533 1.44699 92.1192C1.44699 92.1481 1.44409 92.1857 1.43831 92.232C1.43831 92.2725 1.43831 92.3245 1.43831 92.3882C1.43831 93.0764 1.5511 93.7243 1.77667 94.3316C2.00225 94.9447 2.33483 95.4855 2.77441 95.954C3.22556 96.4283 3.78082 96.81 4.4402 97.0992C5.10535 97.3884 5.87752 97.5532 6.75668 97.5937H7.12975C8.17086 97.5937 9.11655 97.452 9.96679 97.1686C10.817 96.891 11.5574 96.4572 12.1878 95.8672C12.6216 95.4623 12.9918 94.9909 13.2984 94.453C13.6107 93.9151 13.8594 93.2933 14.0445 92.5877H14.2007H15.6149L15.4847 94.0106H15.0596C14.834 94.6063 14.5593 95.1413 14.2354 95.6156C13.9173 96.0899 13.5558 96.5179 13.1509 96.8997C12.3758 97.6227 11.4822 98.1548 10.47 98.496C9.46358 98.8431 8.35017 99.0166 7.12975 99.0166C7.07191 99.0166 7.00539 99.0137 6.9302 99.0079C6.86079 99.0079 6.78271 99.0079 6.69595 99.0079C5.61434 98.9616 4.66288 98.7534 3.84155 98.3832C3.02023 98.0131 2.32326 97.5301 1.75064 96.9344C1.17225 96.327 0.738447 95.6359 0.449248 94.8608C0.160049 94.0858 0.0154493 93.2615 0.0154493 92.3882C0.0154493 92.3477 0.0183413 92.3014 0.0241253 92.2493C0.0241253 92.1915 0.0270173 92.125 0.0328013 92.0498C0.0848571 90.8814 0.330676 89.8519 0.770259 88.9611C1.20984 88.0646 1.79692 87.3069 2.53148 86.688C3.32389 86.0229 4.24065 85.5255 5.28177 85.1958C6.32867 84.8661 7.45076 84.7012 8.64804 84.7012H11.5718H12.2225H14.9121H16.335L15.771 90.8872H14.3568ZM11.0079 90.8872L11.1554 89.2474H8.12748C7.6532 89.2474 7.21072 89.3197 6.80006 89.4643C6.39518 89.6089 6.04236 89.8143 5.74159 90.0803C5.45818 90.3291 5.22682 90.624 5.04751 90.9653C4.87399 91.3065 4.78723 91.6883 4.78723 92.1105V92.2407C4.78145 92.5819 4.83351 92.8856 4.9434 93.1516C5.0533 93.4119 5.20947 93.6346 5.41191 93.8197C5.8457 94.2188 6.45302 94.4357 7.23386 94.4704H7.41606C7.88456 94.4704 8.33282 94.3952 8.76083 94.2448C9.19463 94.1002 9.57637 93.8631 9.90606 93.5334C10.1953 93.2442 10.4353 92.8885 10.6262 92.4662C10.817 92.044 10.9443 91.5177 11.0079 90.8872ZM10.3399 84.172C10.1606 84.172 9.99282 84.1402 9.83665 84.0766C9.68048 84.0072 9.54456 83.9146 9.42888 83.7989C9.3132 83.6775 9.22066 83.5387 9.15125 83.3825C9.08763 83.2263 9.05581 83.0586 9.05581 82.8793C9.05581 82.7 9.08763 82.5322 9.15125 82.3761C9.22066 82.2199 9.3132 82.084 9.42888 81.9683C9.54456 81.8526 9.68048 81.7601 9.83665 81.6907C9.99282 81.6213 10.1606 81.5866 10.3399 81.5866C10.5192 81.5866 10.6869 81.6213 10.8431 81.6907C10.9992 81.7601 11.1352 81.8526 11.2508 81.9683C11.3665 82.084 11.4591 82.2199 11.5285 82.3761C11.5979 82.5322 11.6326 82.7 11.6326 82.8793C11.6326 83.0586 11.5979 83.2263 11.5285 83.3825C11.4591 83.5387 11.3665 83.6775 11.2508 83.7989C11.1352 83.9146 10.9992 84.0072 10.8431 84.0766C10.6869 84.1402 10.5192 84.172 10.3399 84.172ZM15.358 89.4643H18.1777H19.6006L19.5312 90.2365L19.4705 90.8872H18.0476H15.2279L15.358 89.4643ZM19.3143 92.5964L19.2449 93.3685L19.1928 94.0106H17.7613H14.9503L15.0804 92.5964H17.8914H19.3143ZM19.0575 89.4643H21.8772H23.3L23.2306 90.2365L23.1699 90.8872H21.747H18.9273L19.0575 89.4643ZM23.0137 92.5964L22.9443 93.3685L22.8923 94.0106H21.4607H18.6497L18.7798 92.5964H21.5909H23.0137ZM22.7569 89.4643H25.5766H26.9995L26.9301 90.2365L26.8693 90.8872H25.4465H22.6268L22.7569 89.4643ZM26.7132 92.5964L26.6437 93.3685L26.5917 94.0106H25.1602H22.3491L22.4793 92.5964H25.2903H26.7132ZM26.4563 89.4643H29.276H30.6989L30.6295 90.2365L30.5688 90.8872H29.1459H26.3262L26.4563 89.4643ZM30.4126 92.5964L30.3432 93.3685L30.2911 94.0106H28.8596H26.0486L26.1787 92.5964H28.9897H30.4126ZM40.3934 92.5877L40.2546 94.0106H38.8318H36.923H29.7654L29.8868 92.5877H37.0619H38.9706L39.335 88.5447C39.3755 88.1282 39.4015 87.7263 39.413 87.3387C39.4304 86.9454 39.4304 86.5752 39.413 86.2282C39.3957 85.8812 39.3581 85.5573 39.3003 85.2565C39.2482 84.9557 39.1672 84.681 39.0573 84.4323C38.8722 84.0101 38.5744 83.6775 38.1637 83.4345C37.7588 83.1916 37.2007 83.0702 36.4892 83.0702C35.772 83.0702 35.1445 83.2003 34.6066 83.4606C34.0686 83.7209 33.6059 84.0852 33.2184 84.5537C32.7557 85.109 32.3913 85.7771 32.1252 86.5579C31.865 87.3387 31.6943 88.1861 31.6133 89.1C31.5555 89.8172 31.5989 90.4129 31.7435 90.8872H30.0343L30.1992 88.9698C30.2454 88.4435 30.3206 87.9345 30.4247 87.4428C30.5231 86.9454 30.6532 86.4711 30.8152 86.02C30.9771 85.5688 31.1651 85.1437 31.3791 84.7446C31.5989 84.3455 31.8476 83.9782 32.1252 83.6428C32.6458 83.0239 33.2676 82.538 33.9906 82.1852C34.7136 81.8266 35.5465 81.6473 36.4892 81.6473C37.0098 81.6473 37.4754 81.6994 37.8861 81.8035C38.3025 81.9018 38.6669 82.0464 38.9792 82.2373C39.2974 82.4281 39.5692 82.6595 39.7948 82.9313C40.0204 83.2032 40.2083 83.5126 40.3587 83.8597C40.4975 84.172 40.6017 84.5104 40.6711 84.8748C40.7463 85.2391 40.7954 85.6238 40.8186 86.0287C40.8475 86.4335 40.8533 86.8587 40.8359 87.304C40.8186 87.7436 40.7896 88.2005 40.7491 88.6748L40.3934 92.5877ZM36.5673 90.8872H35.5175C35.1589 90.8872 34.8466 90.8352 34.5805 90.731C34.3203 90.6269 34.1005 90.4534 33.9212 90.2105C33.603 89.794 33.496 89.1723 33.6001 88.3451C33.658 87.8766 33.7505 87.4486 33.8778 87.0611C34.0108 86.6678 34.1641 86.3265 34.3376 86.0373C34.569 85.6382 34.8292 85.3317 35.1184 85.1177C35.4134 84.9037 35.7142 84.7967 36.0207 84.7967C36.2174 84.7967 36.3909 84.8054 36.5413 84.8227C36.6917 84.8401 36.8247 84.8805 36.9404 84.9442C37.0619 85.002 37.1631 85.0888 37.2441 85.2044C37.3308 85.3201 37.406 85.4763 37.4696 85.6729C37.539 85.8927 37.568 86.1906 37.5564 86.5666C37.5506 86.9425 37.5188 87.4486 37.461 88.0849L37.2701 90.2365L37.2094 90.8872H36.5673ZM35.5175 89.4643H35.9166L36.0468 87.9634C36.0699 87.7031 36.0873 87.4747 36.0988 87.278C36.1162 87.0756 36.1306 86.8992 36.1422 86.7488C36.1538 86.529 36.1567 86.3699 36.1509 86.2716C36.1509 86.1675 36.1191 86.1154 36.0554 86.1154C35.9398 86.1154 35.8241 86.1935 35.7084 86.3497C35.5985 86.5001 35.4944 86.6938 35.3961 86.931C35.3035 87.1681 35.2226 87.4284 35.1531 87.7118C35.0837 87.9952 35.0346 88.2671 35.0057 88.5273C34.9536 88.9727 34.9709 89.2503 35.0577 89.3602C35.104 89.4296 35.2573 89.4643 35.5175 89.4643ZM57.7089 90.8872L58.1341 86.1241H56.2167L55.7829 90.8872C55.7019 91.7317 55.5255 92.4518 55.2536 93.0475C54.9876 93.6433 54.655 94.1407 54.2559 94.5398C53.7758 95.0141 53.235 95.3553 52.6335 95.5636C52.0377 95.7776 51.416 95.8846 50.7682 95.8846C50.5021 95.8846 50.236 95.8643 49.97 95.8238C49.7039 95.7891 49.4436 95.7313 49.1891 95.6503C48.9346 95.5693 48.6888 95.4623 48.4517 95.3293C48.2145 95.2021 47.9976 95.0459 47.801 94.8608C47.4539 94.5427 47.185 94.1638 46.9941 93.7243C46.809 93.2847 46.7165 92.7901 46.7165 92.2407C46.7165 91.6102 46.8379 91.0202 47.0809 90.4708C47.3296 89.9155 47.6882 89.4296 48.1567 89.0132C48.5905 88.6315 49.0908 88.3394 49.6576 88.1369C50.2245 87.9287 50.8318 87.8246 51.4796 87.8246H54.6376L54.7938 86.1241H52.0088C50.9735 86.1241 50.0105 86.26 49.1197 86.5319C48.229 86.8037 47.4539 87.2173 46.7946 87.7725C46.4533 88.0617 46.1554 88.3827 45.9009 88.7356C45.6522 89.0826 45.444 89.4528 45.2763 89.8461C45.1143 90.2394 44.9929 90.6501 44.9119 91.0781C44.8309 91.5061 44.7904 91.9428 44.7904 92.3882C44.7904 93.0764 44.9032 93.7243 45.1288 94.3316C45.3544 94.9447 45.6869 95.4855 46.1265 95.954C46.4099 96.2547 46.7223 96.5092 47.0635 96.7175C47.4048 96.9257 47.7605 97.0934 48.1307 97.2207C48.5066 97.3537 48.8913 97.4491 49.2846 97.507C49.6837 97.5648 50.0828 97.5937 50.4819 97.5937C51.523 97.5937 52.4687 97.452 53.3189 97.1686C54.1691 96.891 54.9095 96.4572 55.5399 95.8672C55.9737 95.4623 56.3439 94.9909 56.6505 94.453C56.9628 93.9151 57.2115 93.2933 57.3966 92.5877H58.967H60.9017H62.3246H65.6561L65.526 94.0106H62.1857H60.7716H58.8368H58.4117C58.1861 94.6063 57.9114 95.1413 57.5875 95.6156C57.2694 96.0899 56.9079 96.5179 56.503 96.8997C55.7337 97.6227 54.843 98.1548 53.8308 98.496C52.8186 98.8431 51.7023 99.0166 50.4819 99.0166C49.9844 99.0166 49.4899 98.9761 48.9983 98.8951C48.5066 98.8199 48.0294 98.6985 47.5667 98.5307C47.1098 98.363 46.6731 98.1461 46.2567 97.88C45.8402 97.6198 45.4556 97.3045 45.1027 96.9344C44.5301 96.327 44.0992 95.6359 43.81 94.8608C43.5208 94.0858 43.3762 93.2615 43.3762 92.3882C43.3762 91.8387 43.4283 91.3008 43.5324 90.7744C43.6307 90.2481 43.784 89.742 43.9922 89.2561C44.2004 88.7703 44.4607 88.3104 44.7731 87.8766C45.0854 87.4428 45.4556 87.0466 45.8836 86.688C46.676 86.0229 47.5928 85.5255 48.6339 85.1958C49.6808 84.8661 50.8058 84.7012 52.0088 84.7012H54.924H58.2642H59.6871H61.6131H63.036H65.5954H66.3762L65.8036 90.8872H64.3894L64.8232 86.1241H62.9058L62.4634 90.8872H61.0579L61.483 86.1241H59.5656L59.1231 90.8872H57.7089ZM54.36 90.8872L54.5075 89.2474H51.4796C51.0053 89.2474 50.5628 89.3197 50.1522 89.4643C49.7473 89.6089 49.3945 89.8143 49.0937 90.0803C48.7582 90.3753 48.5153 90.6992 48.3649 91.0521C48.2145 91.3991 48.1393 91.7953 48.1393 92.2407C48.1336 92.5819 48.1856 92.8856 48.2955 93.1516C48.4054 93.4119 48.5616 93.6346 48.764 93.8197C49.0359 94.0684 49.3482 94.2361 49.701 94.3229C50.0538 94.4154 50.4096 94.4617 50.7682 94.4617C51.2367 94.4617 51.6849 94.3894 52.1129 94.2448C52.5467 94.1002 52.9285 93.8631 53.2582 93.5334C53.5474 93.2442 53.7874 92.8885 53.9783 92.4662C54.1691 92.044 54.2964 91.5177 54.36 90.8872ZM65.3906 89.4643H68.2103H69.6332L69.5638 90.2365L69.5031 90.8872H68.0802H65.2605L65.3906 89.4643ZM69.3469 92.5964L69.2775 93.3685L69.2254 94.0106H67.7939H64.9829L65.113 92.5964H67.924H69.3469ZM69.0901 89.4643H71.9098H73.3326L73.2632 90.2365L73.2025 90.8872H71.7796H68.9599L69.0901 89.4643ZM73.0463 92.5964L72.9769 93.3685L72.9249 94.0106H71.4933H68.6823L68.8124 92.5964H71.6235H73.0463ZM72.5379 92.5877H77.2923L77.1622 94.0106H72.4078L72.5379 92.5877ZM76.0257 90.8785L76.4508 86.1154H74.5334L74.0996 90.8785H72.6854L73.1886 85.3433L73.2407 84.6926H73.8914H77.2316H78.0038L77.4312 90.8785H76.0257ZM75.7046 98.1924C75.6873 98.3659 75.6381 98.5278 75.5571 98.6782C75.4762 98.8286 75.3721 98.9559 75.2448 99.06C75.1176 99.1699 74.973 99.2508 74.811 99.3029C74.6491 99.355 74.4784 99.3723 74.2991 99.355C74.1256 99.3376 73.9637 99.2884 73.8133 99.2075C73.6629 99.1265 73.5356 99.0224 73.4315 98.8951C73.3216 98.7737 73.2407 98.632 73.1886 98.47C73.1308 98.3081 73.1105 98.1374 73.1279 97.9581C73.1568 97.7152 73.2407 97.5012 73.3795 97.3161C73.5183 97.131 73.6918 96.9922 73.9 96.8997C73.715 96.7666 73.5704 96.596 73.4662 96.3878C73.3563 96.1796 73.313 95.954 73.3361 95.711C73.3535 95.5317 73.4026 95.3669 73.4836 95.2165C73.5646 95.0661 73.6687 94.9389 73.7959 94.8348C73.9232 94.7307 74.0678 94.6526 74.2297 94.6005C74.3917 94.5485 74.5594 94.5311 74.7329 94.5485C74.9122 94.5658 75.0771 94.615 75.2275 94.696C75.3778 94.7769 75.5051 94.881 75.6092 95.0083C75.7191 95.1355 75.8001 95.2801 75.8521 95.4421C75.9042 95.604 75.9215 95.7718 75.9042 95.9453C75.8811 96.1882 75.8001 96.4022 75.6613 96.5873C75.5224 96.7724 75.3489 96.9141 75.1407 97.0124C75.3258 97.1397 75.4704 97.3074 75.5745 97.5157C75.6844 97.7239 75.7278 97.9495 75.7046 98.1924ZM77.0269 89.4643H79.8466H81.2694L81.2 90.2365L81.1393 90.8872H79.7164H76.8967L77.0269 89.4643ZM80.9831 92.5964L80.9137 93.3685L80.8616 94.0106H79.4301H76.6191L76.7492 92.5964H79.5602H80.9831ZM80.7263 89.4643H83.546H84.9688L84.8994 90.2365L84.8387 90.8872H83.4158H80.5962L80.7263 89.4643ZM84.6825 92.5964L84.6131 93.3685L84.5611 94.0106H83.1295H80.3185L80.4487 92.5964H83.2597H84.6825ZM87.6705 90.8785L88.3733 83.0702H86.4559L85.7445 90.8785H84.3216L85.1025 82.298L85.1632 81.6473H85.8052H89.1455H89.9263L89.8482 82.4195L89.0847 90.8785H87.6705ZM88.9286 92.5877L88.7984 94.0106H84.8075H84.0353L84.1047 93.2297L84.1654 92.5877H85.5883H87.5144H88.9286ZM88.6631 89.4643H91.4828H92.9056L92.8362 90.2365L92.7755 90.8872H91.3526H88.5329L88.6631 89.4643ZM92.6193 92.5964L92.5499 93.3685L92.4979 94.0106H91.0663H88.2553L88.3854 92.5964H91.1965H92.6193ZM92.1022 92.5877H95.4425L96.0324 86.1154H94.1064L93.6813 90.8785H92.2584L92.7616 85.3433L92.8137 84.6926H93.4644H96.8046H97.5768L96.8653 92.5877L96.7352 94.0106H96.0932H91.9721L92.1022 92.5877ZM95.2516 94.5138C95.4193 94.5138 95.5784 94.5456 95.7288 94.6092C95.8792 94.6728 96.0093 94.7596 96.1192 94.8695C96.2349 94.9852 96.3245 95.1182 96.3882 95.2686C96.4518 95.419 96.4836 95.578 96.4836 95.7458C96.4836 95.9193 96.4518 96.0812 96.3882 96.2316C96.3245 96.382 96.2349 96.5121 96.1192 96.622C96.0093 96.7377 95.8792 96.8274 95.7288 96.891C95.5784 96.9546 95.4193 96.9864 95.2516 96.9864C95.0203 96.9864 94.8091 96.9257 94.6183 96.8042C94.4274 96.6885 94.2799 96.5382 94.1758 96.3531C94.0717 96.5382 93.9242 96.6885 93.7333 96.8042C93.5424 96.9257 93.3313 96.9864 93.1 96.9864C92.9264 96.9864 92.7674 96.9546 92.6228 96.891C92.4724 96.8274 92.3423 96.7377 92.2324 96.622C92.1167 96.5121 92.027 96.382 91.9634 96.2316C91.8998 96.0812 91.868 95.9193 91.868 95.7458C91.868 95.578 91.8998 95.419 91.9634 95.2686C92.027 95.1182 92.1167 94.9852 92.2324 94.8695C92.3423 94.7596 92.4724 94.6728 92.6228 94.6092C92.7674 94.5456 92.9264 94.5138 93.1 94.5138C93.3313 94.5138 93.5424 94.5716 93.7333 94.6873C93.9242 94.8087 94.0717 94.9649 94.1758 95.1558C94.2799 94.9649 94.4274 94.8087 94.6183 94.6873C94.8091 94.5716 95.0203 94.5138 95.2516 94.5138ZM93.9762 99.3376C93.8085 99.3376 93.6494 99.3058 93.4991 99.2422C93.3487 99.1785 93.2185 99.0918 93.1086 98.9819C92.9987 98.872 92.912 98.7419 92.8484 98.5915C92.7847 98.4411 92.7529 98.282 92.7529 98.1143C92.7529 97.9408 92.7847 97.7788 92.8484 97.6284C92.912 97.4781 92.9987 97.345 93.1086 97.2293C93.2185 97.1194 93.3487 97.0327 93.4991 96.9691C93.6494 96.9054 93.8085 96.8736 93.9762 96.8736C94.144 96.8736 94.303 96.9054 94.4534 96.9691C94.6038 97.0327 94.7339 97.1194 94.8438 97.2293C94.9595 97.345 95.0492 97.4781 95.1128 97.6284C95.1764 97.7788 95.2082 97.9408 95.2082 98.1143C95.2082 98.282 95.1764 98.4411 95.1128 98.5915C95.0492 98.7419 94.9595 98.872 94.8438 98.9819C94.7339 99.0918 94.6038 99.1785 94.4534 99.2422C94.303 99.3058 94.144 99.3376 93.9762 99.3376Z" fill="#5882FF"/>
<path d="M53.5085 14.762L31.8378 28.6822C28.9676 30.5258 25.1943 28.4649 25.1943 25.0536V24.5932C25.1943 22.9536 26.0184 21.4237 27.3876 20.5217L49.7228 5.80689C55.1789 2.21228 62.1359 1.79354 67.9838 4.70777C71.648 6.53379 73.964 10.2755 73.964 14.3695V24.4014C73.964 25.2837 73.5074 26.1032 72.7572 26.5675L54.8866 37.6277L36.3925 49.0738C36.0299 49.2982 35.8092 49.6943 35.8092 50.1208V56.6657C35.8092 61.5511 31.8489 65.5115 26.9635 65.5115C25.9864 65.5115 25.1943 64.7194 25.1943 63.7423V46.5948C25.1943 44.5919 26.2071 42.7249 27.8859 41.6327L58.1509 21.9434C59.6767 20.9508 60.4067 19.101 59.9702 17.334C59.2672 14.4885 55.9746 13.1779 53.5085 14.762Z" fill="#5882FF"/>
<path d="M71.7804 32.7557H68.8688C67.6627 32.7557 66.6851 33.7334 66.6851 34.9395V63.3277C66.6851 64.5338 67.6627 65.5115 68.8688 65.5115H71.7804C72.9864 65.5115 73.9641 64.5338 73.9641 63.3277V34.9395C73.9641 33.7334 72.9864 32.7557 71.7804 32.7557Z" fill="#5882FF"/>
<path d="M59.4059 42.9464L56.4943 42.9464C55.2882 42.9464 54.3105 43.9241 54.3105 45.1301V63.3278C54.3105 64.5338 55.2882 65.5115 56.4943 65.5115H59.4059C60.6119 65.5115 61.5896 64.5338 61.5896 63.3278V45.1301C61.5896 43.9241 60.6119 42.9464 59.4059 42.9464Z" fill="#5882FF"/>
<path d="M47.0319 51.6813L44.1202 51.6813C42.9142 51.6813 41.9365 52.659 41.9365 53.865V63.3278C41.9365 64.5338 42.9142 65.5115 44.1202 65.5115H47.0319C48.2379 65.5115 49.2156 64.5338 49.2156 63.3278V53.865C49.2156 52.659 48.2379 51.6813 47.0319 51.6813Z" fill="#5882FF"/>
</svg>
