<svg width="67" height="69" viewBox="0 0 67 69" fill="none" xmlns="http://www.w3.org/2000/svg">
<path d="M10.1035 62.9012L10.3906 59.6844H9.0957L8.79688 62.9012C8.74219 63.4715 8.625 63.9578 8.44531 64.3602C8.26562 64.7625 8.04102 65.0984 7.77148 65.368C7.44727 65.6922 7.08203 65.9246 6.67578 66.0652C6.27344 66.2059 5.85352 66.2762 5.41602 66.2762H5.25195C4.87305 66.2606 4.5293 66.1942 4.2207 66.077C3.91211 65.9598 3.64258 65.7957 3.41211 65.5848C3.17773 65.3699 2.99609 65.1141 2.86719 64.8172C2.74219 64.5203 2.67969 64.1863 2.67969 63.8152V63.6922C2.69922 63.2664 2.79297 62.8797 2.96094 62.532C3.13281 62.1844 3.36328 61.8856 3.65234 61.6356C3.94531 61.3777 4.2832 61.1805 4.66602 61.0438C5.04883 60.9031 5.45898 60.8328 5.89648 60.8328H8.0293L8.13477 59.6844H6.24805C5.55273 59.6844 4.9043 59.7762 4.30273 59.9598C3.70117 60.1434 3.17773 60.4227 2.73242 60.7977C2.33789 61.1297 2.02148 61.5399 1.7832 62.0281C1.54883 62.5125 1.41602 63.0809 1.38477 63.7332C1.38477 63.7527 1.38281 63.7781 1.37891 63.8094C1.37891 63.8367 1.37891 63.8719 1.37891 63.9149C1.37891 64.3797 1.45508 64.8172 1.60742 65.2274C1.75977 65.6414 1.98438 66.0067 2.28125 66.3231C2.58594 66.6434 2.96094 66.9012 3.40625 67.0965C3.85547 67.2918 4.37695 67.4031 4.9707 67.4305H5.22266C5.92578 67.4305 6.56445 67.3348 7.13867 67.1434C7.71289 66.9559 8.21289 66.6629 8.63867 66.2645C8.93164 65.991 9.18164 65.6727 9.38867 65.3094C9.59961 64.9461 9.76758 64.5262 9.89258 64.0496H9.99805H10.9531L10.8652 65.0106H10.5781C10.4258 65.4129 10.2402 65.7742 10.0215 66.0945C9.80664 66.4149 9.5625 66.7039 9.28906 66.9617C8.76562 67.45 8.16211 67.8094 7.47852 68.0399C6.79883 68.2742 6.04688 68.3914 5.22266 68.3914C5.18359 68.3914 5.13867 68.3895 5.08789 68.3856C5.04102 68.3856 4.98828 68.3856 4.92969 68.3856C4.19922 68.3543 3.55664 68.2137 3.00195 67.9637C2.44727 67.7137 1.97656 67.3875 1.58984 66.9852C1.19922 66.575 0.90625 66.1082 0.710938 65.5848C0.515625 65.0613 0.417969 64.5047 0.417969 63.9149C0.417969 63.8875 0.419922 63.8563 0.423828 63.8211C0.423828 63.782 0.425781 63.7371 0.429688 63.6863C0.464844 62.8973 0.630859 62.202 0.927734 61.6004C1.22461 60.9949 1.62109 60.4832 2.11719 60.0652C2.65234 59.616 3.27148 59.2801 3.97461 59.0574C4.68164 58.8348 5.43945 58.7234 6.24805 58.7234H8.22266H8.66211H10.4785H11.4395L11.0586 62.9012H10.1035ZM7.8418 62.9012L7.94141 61.7938H5.89648C5.57617 61.7938 5.27734 61.8426 5 61.9402C4.72656 62.0379 4.48828 62.1766 4.28516 62.3563C4.09375 62.5242 3.9375 62.7234 3.81641 62.9539C3.69922 63.1844 3.64062 63.4422 3.64062 63.7274V63.8152C3.63672 64.0457 3.67188 64.2508 3.74609 64.4305C3.82031 64.6063 3.92578 64.7567 4.0625 64.8817C4.35547 65.1512 4.76562 65.2977 5.29297 65.3211H5.41602C5.73242 65.3211 6.03516 65.2703 6.32422 65.1688C6.61719 65.0711 6.875 64.9109 7.09766 64.6883C7.29297 64.493 7.45508 64.2527 7.58398 63.9676C7.71289 63.6824 7.79883 63.327 7.8418 62.9012ZM7.39062 58.366C7.26953 58.366 7.15625 58.3445 7.05078 58.3016C6.94531 58.2547 6.85352 58.1922 6.77539 58.1141C6.69727 58.032 6.63477 57.9383 6.58789 57.8328C6.54492 57.7274 6.52344 57.6141 6.52344 57.493C6.52344 57.3719 6.54492 57.2586 6.58789 57.1531C6.63477 57.0477 6.69727 56.9559 6.77539 56.8777C6.85352 56.7996 6.94531 56.7371 7.05078 56.6902C7.15625 56.6434 7.26953 56.6199 7.39062 56.6199C7.51172 56.6199 7.625 56.6434 7.73047 56.6902C7.83594 56.7371 7.92773 56.7996 8.00586 56.8777C8.08398 56.9559 8.14648 57.0477 8.19336 57.1531C8.24023 57.2586 8.26367 57.3719 8.26367 57.493C8.26367 57.6141 8.24023 57.7274 8.19336 57.8328C8.14648 57.9383 8.08398 58.032 8.00586 58.1141C7.92773 58.1922 7.83594 58.2547 7.73047 58.3016C7.625 58.3445 7.51172 58.366 7.39062 58.366ZM10.7797 61.9402H12.684H13.6449L13.598 62.4617L13.557 62.9012H12.5961H10.6918L10.7797 61.9402ZM13.4516 64.0555L13.4047 64.577L13.3695 65.0106H12.4027H10.5043L10.5922 64.0555H12.4906H13.4516ZM13.2781 61.9402H15.1824H16.1434L16.0965 62.4617L16.0555 62.9012H15.0945H13.1902L13.2781 61.9402ZM15.95 64.0555L15.9031 64.577L15.868 65.0106H14.9012H13.0027L13.0906 64.0555H14.9891H15.95ZM15.7766 61.9402H17.6809H18.6418L18.5949 62.4617L18.5539 62.9012H17.593H15.6887L15.7766 61.9402ZM18.4484 64.0555L18.4016 64.577L18.3664 65.0106H17.3996H15.5012L15.5891 64.0555H17.4875H18.4484ZM18.275 61.9402H20.1793H21.1402L21.0934 62.4617L21.0523 62.9012H20.0914H18.1871L18.275 61.9402ZM20.9469 64.0555L20.9 64.577L20.8648 65.0106H19.898H17.9996L18.0875 64.0555H19.9859H20.9469ZM27.6875 64.0496L27.5938 65.0106H26.6328H25.3438H20.5098L20.5918 64.0496H25.4375H26.7266L26.9727 61.3192C27 61.0379 27.0176 60.7664 27.0254 60.5047C27.0371 60.2391 27.0371 59.9891 27.0254 59.7547C27.0137 59.5203 26.9883 59.3016 26.9492 59.0984C26.9141 58.8953 26.8594 58.7098 26.7852 58.5418C26.6602 58.2567 26.459 58.032 26.1816 57.868C25.9082 57.7039 25.5312 57.6219 25.0508 57.6219C24.5664 57.6219 24.1426 57.7098 23.7793 57.8856C23.416 58.0613 23.1035 58.3074 22.8418 58.6238C22.5293 58.9988 22.2832 59.45 22.1035 59.9774C21.9277 60.5047 21.8125 61.077 21.7578 61.6942C21.7188 62.1785 21.748 62.5809 21.8457 62.9012H20.6914L20.8027 61.6063C20.834 61.2508 20.8848 60.907 20.9551 60.575C21.0215 60.2391 21.1094 59.9188 21.2188 59.6141C21.3281 59.3094 21.4551 59.0223 21.5996 58.7527C21.748 58.4832 21.916 58.2352 22.1035 58.0086C22.4551 57.5906 22.875 57.2625 23.3633 57.0242C23.8516 56.782 24.4141 56.6609 25.0508 56.6609C25.4023 56.6609 25.7168 56.6961 25.9941 56.7664C26.2754 56.8328 26.5215 56.9305 26.7324 57.0594C26.9473 57.1883 27.1309 57.3445 27.2832 57.5281C27.4355 57.7117 27.5625 57.9207 27.6641 58.1551C27.7578 58.366 27.8281 58.5945 27.875 58.8406C27.9258 59.0867 27.959 59.3465 27.9746 59.6199C27.9941 59.8934 27.998 60.1805 27.9863 60.4813C27.9746 60.7781 27.9551 61.0867 27.9277 61.407L27.6875 64.0496ZM25.1035 62.9012H24.3945C24.1523 62.9012 23.9414 62.866 23.7617 62.7957C23.5859 62.7254 23.4375 62.6082 23.3164 62.4442C23.1016 62.1629 23.0293 61.743 23.0996 61.1844C23.1387 60.868 23.2012 60.5789 23.2871 60.3172C23.377 60.0516 23.4805 59.8211 23.5977 59.6258C23.7539 59.3563 23.9297 59.1492 24.125 59.0047C24.3242 58.8602 24.5273 58.7879 24.7344 58.7879C24.8672 58.7879 24.9844 58.7938 25.0859 58.8055C25.1875 58.8172 25.2773 58.8445 25.3555 58.8875C25.4375 58.9266 25.5059 58.9852 25.5605 59.0633C25.6191 59.1414 25.6699 59.2469 25.7129 59.3797C25.7598 59.5281 25.7793 59.7293 25.7715 59.9832C25.7676 60.2371 25.7461 60.5789 25.707 61.0086L25.5781 62.4617L25.5371 62.9012H25.1035ZM24.3945 61.9402H24.6641L24.752 60.9266C24.7676 60.7508 24.7793 60.5965 24.7871 60.4637C24.7988 60.327 24.8086 60.2078 24.8164 60.1063C24.8242 59.9578 24.8262 59.8504 24.8223 59.784C24.8223 59.7137 24.8008 59.6785 24.7578 59.6785C24.6797 59.6785 24.6016 59.7313 24.5234 59.8367C24.4492 59.9383 24.3789 60.0692 24.3125 60.2293C24.25 60.3895 24.1953 60.5652 24.1484 60.7567C24.1016 60.9481 24.0684 61.1317 24.0488 61.3074C24.0137 61.6082 24.0254 61.7957 24.084 61.8699C24.1152 61.9168 24.2188 61.9402 24.3945 61.9402ZM39.3816 62.9012L39.6688 59.6844H38.3738L38.0809 62.9012C38.0262 63.4715 37.907 63.9578 37.7234 64.3602C37.5438 64.7625 37.3191 65.0984 37.0496 65.368C36.7254 65.6883 36.3602 65.9188 35.9539 66.0594C35.5516 66.2039 35.1316 66.2762 34.6941 66.2762C34.5145 66.2762 34.3348 66.2625 34.1551 66.2352C33.9754 66.2117 33.7996 66.1727 33.6277 66.118C33.4559 66.0633 33.2898 65.991 33.1297 65.9012C32.9695 65.8152 32.823 65.7098 32.6902 65.5848C32.4559 65.3699 32.2742 65.1141 32.1453 64.8172C32.0203 64.5203 31.9578 64.1863 31.9578 63.8152C31.9578 63.3895 32.0398 62.991 32.2039 62.6199C32.3719 62.2449 32.6141 61.9168 32.9305 61.6356C33.2234 61.3777 33.5613 61.1805 33.9441 61.0438C34.327 60.9031 34.7371 60.8328 35.1746 60.8328H37.3074L37.4129 59.6844H35.532C34.8328 59.6844 34.1824 59.7762 33.5809 59.9598C32.9793 60.1434 32.4559 60.4227 32.0105 60.7977C31.7801 60.993 31.5789 61.2098 31.407 61.4481C31.2391 61.6824 31.0984 61.9324 30.9852 62.1981C30.8758 62.4637 30.7938 62.741 30.7391 63.0301C30.6844 63.3192 30.657 63.6141 30.657 63.9149C30.657 64.3797 30.7332 64.8172 30.8855 65.2274C31.0379 65.6414 31.2625 66.0067 31.5594 66.3231C31.7508 66.5262 31.9617 66.6981 32.1922 66.8387C32.4227 66.9793 32.6629 67.0926 32.9129 67.1785C33.1668 67.2684 33.4266 67.3328 33.6922 67.3719C33.9617 67.4109 34.2313 67.4305 34.5008 67.4305C35.2039 67.4305 35.8426 67.3348 36.4168 67.1434C36.991 66.9559 37.491 66.6629 37.9168 66.2645C38.2098 65.991 38.4598 65.6727 38.6668 65.3094C38.8777 64.9461 39.0457 64.5262 39.1707 64.0496H40.2313H41.5379H42.4988H44.7488L44.6609 65.0106H42.4051H41.45H40.1434H39.8563C39.7039 65.4129 39.5184 65.7742 39.2996 66.0945C39.0848 66.4149 38.8406 66.7039 38.5672 66.9617C38.0477 67.45 37.4461 67.8094 36.7625 68.0399C36.0789 68.2742 35.325 68.3914 34.5008 68.3914C34.1648 68.3914 33.8309 68.3641 33.4988 68.3094C33.1668 68.2586 32.8445 68.1766 32.532 68.0633C32.2234 67.95 31.9285 67.8035 31.6473 67.6238C31.366 67.4481 31.1063 67.2352 30.868 66.9852C30.4813 66.575 30.1902 66.1082 29.9949 65.5848C29.7996 65.0613 29.702 64.5047 29.702 63.9149C29.702 63.5438 29.7371 63.1805 29.8074 62.825C29.8738 62.4695 29.9773 62.1277 30.118 61.7996C30.2586 61.4715 30.4344 61.1609 30.6453 60.868C30.8563 60.575 31.1063 60.3074 31.3953 60.0652C31.9305 59.616 32.5496 59.2801 33.2527 59.0574C33.9598 58.8348 34.7195 58.7234 35.532 58.7234H37.5008H39.7566H40.7176H42.0184H42.9793H44.7078H45.2352L44.8484 62.9012H43.8934L44.1863 59.6844H42.8914L42.5926 62.9012H41.6434L41.9305 59.6844H40.6355L40.3367 62.9012H39.3816ZM37.1199 62.9012L37.2195 61.7938H35.1746C34.8543 61.7938 34.5555 61.8426 34.2781 61.9402C34.0047 62.0379 33.7664 62.1766 33.5633 62.3563C33.3367 62.5555 33.1727 62.7742 33.0711 63.0125C32.9695 63.2469 32.9188 63.5145 32.9188 63.8152C32.9148 64.0457 32.95 64.2508 33.0242 64.4305C33.0984 64.6063 33.2039 64.7567 33.3406 64.8817C33.5242 65.0496 33.7352 65.1629 33.9734 65.2215C34.2117 65.284 34.452 65.3152 34.6941 65.3152C35.0105 65.3152 35.3133 65.2664 35.6023 65.1688C35.8953 65.0711 36.1531 64.9109 36.3758 64.6883C36.5711 64.493 36.7332 64.2527 36.8621 63.9676C36.991 63.6824 37.077 63.327 37.1199 62.9012ZM44.5695 61.9402H46.4738H47.4348L47.3879 62.4617L47.3469 62.9012H46.3859H44.4816L44.5695 61.9402ZM47.2414 64.0555L47.1945 64.577L47.1594 65.0106H46.1926H44.2941L44.382 64.0555H46.2805H47.2414ZM47.068 61.9402H48.9723H49.9332L49.8863 62.4617L49.8453 62.9012H48.8844H46.9801L47.068 61.9402ZM49.7398 64.0555L49.693 64.577L49.6578 65.0106H48.691H46.7926L46.8805 64.0555H48.7789H49.7398ZM49.3965 64.0496H52.6074L52.5195 65.0106H49.3086L49.3965 64.0496ZM51.752 62.8953L52.0391 59.6785H50.7441L50.4512 62.8953H49.4961L49.8359 59.157L49.8711 58.7176H50.3105H52.5664H53.0879L52.7012 62.8953H51.752ZM51.5352 67.8348C51.5234 67.952 51.4902 68.0613 51.4355 68.1629C51.3809 68.2645 51.3105 68.3504 51.2246 68.4207C51.1387 68.4949 51.041 68.5496 50.9316 68.5848C50.8223 68.6199 50.707 68.6317 50.5859 68.6199C50.4688 68.6082 50.3594 68.575 50.2578 68.5203C50.1562 68.4656 50.0703 68.3953 50 68.3094C49.9258 68.2274 49.8711 68.1317 49.8359 68.0223C49.7969 67.9129 49.7832 67.7977 49.7949 67.6766C49.8145 67.5125 49.8711 67.368 49.9648 67.243C50.0586 67.118 50.1758 67.0242 50.3164 66.9617C50.1914 66.8719 50.0938 66.7567 50.0234 66.616C49.9492 66.4754 49.9199 66.3231 49.9355 66.159C49.9473 66.0379 49.9805 65.9266 50.0352 65.825C50.0898 65.7234 50.1602 65.6375 50.2461 65.5672C50.332 65.4969 50.4297 65.4442 50.5391 65.409C50.6484 65.3738 50.7617 65.3621 50.8789 65.3738C51 65.3856 51.1113 65.4188 51.2129 65.4734C51.3145 65.5281 51.4004 65.5984 51.4707 65.6844C51.5449 65.7703 51.5996 65.868 51.6348 65.9774C51.6699 66.0867 51.6816 66.2 51.6699 66.3172C51.6543 66.4813 51.5996 66.6258 51.5059 66.7508C51.4121 66.8758 51.2949 66.9715 51.1543 67.0379C51.2793 67.1238 51.377 67.2371 51.4473 67.3777C51.5215 67.5184 51.5508 67.6707 51.5352 67.8348ZM52.4281 61.9402H54.3324H55.2934L55.2465 62.4617L55.2055 62.9012H54.2445H52.3402L52.4281 61.9402ZM55.1 64.0555L55.0531 64.577L55.018 65.0106H54.0512H52.1527L52.2406 64.0555H54.1391H55.1ZM54.9266 61.9402H56.8309H57.7918L57.7449 62.4617L57.7039 62.9012H56.743H54.8387L54.9266 61.9402ZM57.5984 64.0555L57.5516 64.577L57.5164 65.0106H56.5496H54.6512L54.7391 64.0555H56.6375H57.5984ZM59.6164 62.8953L60.091 57.6219H58.7961L58.3156 62.8953H57.3547L57.882 57.1004L57.923 56.6609H58.3566H60.6125H61.1398L61.0871 57.1824L60.5715 62.8953H59.6164ZM60.466 64.0496L60.3781 65.0106H57.6828H57.1613L57.2082 64.4832L57.2492 64.0496H58.2102H59.5109H60.466ZM60.2867 61.9402H62.191H63.152L63.1051 62.4617L63.0641 62.9012H62.1031H60.1988L60.2867 61.9402ZM62.9586 64.0555L62.9117 64.577L62.8766 65.0106H61.9098H60.0113L60.0992 64.0555H61.9977H62.9586ZM62.6094 64.0496H64.8652L65.2637 59.6785H63.9629L63.6758 62.8953H62.7148L63.0547 59.157L63.0898 58.7176H63.5293H65.7852H66.3066L65.8262 64.0496L65.7383 65.0106H65.3047H62.5215L62.6094 64.0496ZM64.7363 65.3504C64.8496 65.3504 64.957 65.3719 65.0586 65.4149C65.1602 65.4578 65.248 65.5164 65.3223 65.5906C65.4004 65.6688 65.4609 65.7586 65.5039 65.8602C65.5469 65.9617 65.5684 66.0692 65.5684 66.1824C65.5684 66.2996 65.5469 66.409 65.5039 66.5106C65.4609 66.6121 65.4004 66.7 65.3223 66.7742C65.248 66.8524 65.1602 66.9129 65.0586 66.9559C64.957 66.9988 64.8496 67.0203 64.7363 67.0203C64.5801 67.0203 64.4375 66.9793 64.3086 66.8973C64.1797 66.8192 64.0801 66.7176 64.0098 66.5926C63.9395 66.7176 63.8398 66.8192 63.7109 66.8973C63.582 66.9793 63.4395 67.0203 63.2832 67.0203C63.166 67.0203 63.0586 66.9988 62.9609 66.9559C62.8594 66.9129 62.7715 66.8524 62.6973 66.7742C62.6191 66.7 62.5586 66.6121 62.5156 66.5106C62.4727 66.409 62.4512 66.2996 62.4512 66.1824C62.4512 66.0692 62.4727 65.9617 62.5156 65.8602C62.5586 65.7586 62.6191 65.6688 62.6973 65.5906C62.7715 65.5164 62.8594 65.4578 62.9609 65.4149C63.0586 65.3719 63.166 65.3504 63.2832 65.3504C63.4395 65.3504 63.582 65.3895 63.7109 65.4676C63.8398 65.5496 63.9395 65.6551 64.0098 65.784C64.0801 65.6551 64.1797 65.5496 64.3086 65.4676C64.4375 65.3895 64.5801 65.3504 64.7363 65.3504ZM63.875 68.6082C63.7617 68.6082 63.6543 68.5867 63.5527 68.5438C63.4512 68.5008 63.3633 68.4422 63.2891 68.368C63.2148 68.2938 63.1562 68.2059 63.1133 68.1043C63.0703 68.0027 63.0488 67.8953 63.0488 67.782C63.0488 67.6649 63.0703 67.5555 63.1133 67.4539C63.1562 67.3524 63.2148 67.2625 63.2891 67.1844C63.3633 67.1102 63.4512 67.0516 63.5527 67.0086C63.6543 66.9656 63.7617 66.9442 63.875 66.9442C63.9883 66.9442 64.0957 66.9656 64.1973 67.0086C64.2988 67.0516 64.3867 67.1102 64.4609 67.1844C64.5391 67.2625 64.5996 67.3524 64.6426 67.4539C64.6855 67.5555 64.707 67.6649 64.707 67.782C64.707 67.8953 64.6855 68.0027 64.6426 68.1043C64.5996 68.2059 64.5391 68.2938 64.4609 68.368C64.3867 68.4422 64.2988 68.5008 64.1973 68.5438C64.0957 68.5867 63.9883 68.6082 63.875 68.6082Z" fill="#5882FF"/>
<path d="M36.5535 11.0715L20.3005 21.5116C18.1478 22.8944 15.3179 21.3487 15.3179 18.7902V18.4449C15.3179 17.2152 15.936 16.0678 16.9628 15.3913L33.7142 4.35516C37.8063 1.65921 43.024 1.34516 47.41 3.53083C50.1581 4.90034 51.8951 7.70661 51.8951 10.7771V18.301C51.8951 18.9628 51.5527 19.5774 50.99 19.9256L37.5871 28.2208L23.7165 36.8053C23.4445 36.9737 23.279 37.2707 23.279 37.5906V42.4993C23.279 46.1633 20.3088 49.1336 16.6447 49.1336C15.9119 49.1336 15.3179 48.5395 15.3179 47.8067V34.9461C15.3179 33.444 16.0774 32.0437 17.3365 31.2245L40.0353 16.4575C41.1796 15.7131 41.7271 14.3258 41.3997 13.0005C40.8725 10.8664 38.4031 9.88344 36.5535 11.0715Z" fill="#5882FF"/>
<path d="M50.257 24.5668H48.0733C47.1688 24.5668 46.4355 25.3001 46.4355 26.2046V47.4958C46.4355 48.4003 47.1688 49.1336 48.0733 49.1336H50.257C51.1616 49.1336 51.8948 48.4003 51.8948 47.4958V26.2046C51.8948 25.3001 51.1616 24.5668 50.257 24.5668Z" fill="#5882FF"/>
<path d="M40.9763 32.2098L38.7926 32.2098C37.888 32.2098 37.1548 32.9431 37.1548 33.8476V47.4958C37.1548 48.4003 37.888 49.1336 38.7926 49.1336H40.9763C41.8808 49.1336 42.6141 48.4003 42.6141 47.4958V33.8476C42.6141 32.9431 41.8808 32.2098 40.9763 32.2098Z" fill="#5882FF"/>
<path d="M31.696 38.761L29.5123 38.761C28.6078 38.761 27.8745 39.4942 27.8745 40.3987V47.4958C27.8745 48.4003 28.6078 49.1336 29.5123 49.1336H31.696C32.6005 49.1336 33.3338 48.4003 33.3338 47.4958V40.3987C33.3338 39.4942 32.6005 38.761 31.696 38.761Z" fill="#5882FF"/>
</svg>
